<mxfile host="app.diagrams.net" agent="Mozilla/5.0 (Windows NT 10.0; Win64; x64) AppleWebKit/537.36 (KHTML, like Gecko) Chrome/138.0.0.0 Safari/537.36" version="28.0.7">
  <diagram name="Page-1" id="PJX9JKJy5KzWJc68_nqa">
    <mxGraphModel dx="1901" dy="1036" grid="1" gridSize="10" guides="1" tooltips="1" connect="1" arrows="1" fold="1" page="1" pageScale="1" pageWidth="850" pageHeight="1100" math="0" shadow="0">
      <root>
        <mxCell id="0" />
        <mxCell id="1" parent="0" />
        <mxCell id="8NNf2UId70UZPEbqITqU-1" value="Title&amp;nbsp;" style="rounded=0;whiteSpace=wrap;html=1;" vertex="1" parent="1">
          <mxGeometry y="10" width="1730" height="90" as="geometry" />
        </mxCell>
        <mxCell id="8NNf2UId70UZPEbqITqU-2" value="Nav bar" style="rounded=0;whiteSpace=wrap;html=1;" vertex="1" parent="1">
          <mxGeometry x="1400" y="60" width="60" height="20" as="geometry" />
        </mxCell>
        <mxCell id="8NNf2UId70UZPEbqITqU-3" value="Nav bar" style="rounded=0;whiteSpace=wrap;html=1;" vertex="1" parent="1">
          <mxGeometry x="1460" y="60" width="60" height="20" as="geometry" />
        </mxCell>
        <mxCell id="8NNf2UId70UZPEbqITqU-4" value="Nav bar" style="rounded=0;whiteSpace=wrap;html=1;" vertex="1" parent="1">
          <mxGeometry x="1520" y="60" width="70" height="20" as="geometry" />
        </mxCell>
        <mxCell id="8NNf2UId70UZPEbqITqU-5" value="Nav bar" style="rounded=0;whiteSpace=wrap;html=1;" vertex="1" parent="1">
          <mxGeometry x="1340" y="60" width="60" height="20" as="geometry" />
        </mxCell>
        <mxCell id="8NNf2UId70UZPEbqITqU-31" value="&lt;div&gt;submit form to join newsletter and find a game to learn/play&amp;nbsp;&lt;/div&gt;" style="rounded=0;whiteSpace=wrap;html=1;" vertex="1" parent="1">
          <mxGeometry x="80" y="160" width="440" height="620" as="geometry" />
        </mxCell>
        <mxCell id="8NNf2UId70UZPEbqITqU-34" value="members and games played&amp;nbsp;" style="rounded=0;whiteSpace=wrap;html=1;" vertex="1" parent="1">
          <mxGeometry x="650" y="190" width="300" height="240" as="geometry" />
        </mxCell>
        <mxCell id="8NNf2UId70UZPEbqITqU-35" value="members and games played&amp;nbsp;" style="rounded=0;whiteSpace=wrap;html=1;" vertex="1" parent="1">
          <mxGeometry x="1060" y="190" width="300" height="240" as="geometry" />
        </mxCell>
        <mxCell id="8NNf2UId70UZPEbqITqU-36" value="members and games played&amp;nbsp;" style="rounded=0;whiteSpace=wrap;html=1;" vertex="1" parent="1">
          <mxGeometry x="1440" y="190" width="300" height="240" as="geometry" />
        </mxCell>
        <mxCell id="8NNf2UId70UZPEbqITqU-37" value="members and games played&amp;nbsp;" style="rounded=0;whiteSpace=wrap;html=1;" vertex="1" parent="1">
          <mxGeometry x="650" y="510" width="300" height="240" as="geometry" />
        </mxCell>
        <mxCell id="8NNf2UId70UZPEbqITqU-38" value="members and games played&amp;nbsp;" style="rounded=0;whiteSpace=wrap;html=1;" vertex="1" parent="1">
          <mxGeometry x="1060" y="500" width="300" height="240" as="geometry" />
        </mxCell>
        <mxCell id="8NNf2UId70UZPEbqITqU-39" value="members and games played&amp;nbsp;" style="rounded=0;whiteSpace=wrap;html=1;" vertex="1" parent="1">
          <mxGeometry x="1450" y="500" width="300" height="240" as="geometry" />
        </mxCell>
        <mxCell id="8NNf2UId70UZPEbqITqU-40" value="members and games played&amp;nbsp;" style="rounded=0;whiteSpace=wrap;html=1;" vertex="1" parent="1">
          <mxGeometry x="650" y="780" width="300" height="240" as="geometry" />
        </mxCell>
        <mxCell id="8NNf2UId70UZPEbqITqU-41" value="members and games played&amp;nbsp;" style="rounded=0;whiteSpace=wrap;html=1;" vertex="1" parent="1">
          <mxGeometry x="1060" y="790" width="300" height="240" as="geometry" />
        </mxCell>
        <mxCell id="8NNf2UId70UZPEbqITqU-42" value="members and games played&amp;nbsp;" style="rounded=0;whiteSpace=wrap;html=1;" vertex="1" parent="1">
          <mxGeometry x="1460" y="810" width="300" height="240" as="geometry" />
        </mxCell>
        <mxCell id="8NNf2UId70UZPEbqITqU-43" value="footer&amp;nbsp;&amp;nbsp;" style="rounded=0;whiteSpace=wrap;html=1;" vertex="1" parent="1">
          <mxGeometry x="10" y="1170" width="1910" height="70" as="geometry" />
        </mxCell>
        <mxCell id="8NNf2UId70UZPEbqITqU-44" value="members and games played&amp;nbsp;" style="rounded=0;whiteSpace=wrap;html=1;" vertex="1" parent="1">
          <mxGeometry x="80" y="830" width="440" height="250" as="geometry" />
        </mxCell>
      </root>
    </mxGraphModel>
  </diagram>
</mxfile>
